<?xml version="1.0" standalone="no"?>
<!DOCTYPE svg PUBLIC "-//W3C//DTD SVG 20010904//EN"
 "http://www.w3.org/TR/2001/REC-SVG-20010904/DTD/svg10.dtd">
<svg version="1.0" xmlns="http://www.w3.org/2000/svg"
 width="448.000000pt" height="448.000000pt" viewBox="0 0 448.000000 448.000000"
 preserveAspectRatio="xMidYMid meet">
<metadata>
Created by potrace 1.11, written by Peter Selinger 2001-2013
</metadata>
<g transform="translate(0.000000,448.000000) scale(0.100000,-0.100000)"
fill="#000000" stroke="none">
<path d="M2741 2993 c-6 -21 -10 -56 -10 -78 1 -39 1 -39 9 -10 21 77 27 116
19 120 -4 3 -13 -11 -18 -32z"/>
<path d="M2831 2983 c-13 -46 -14 -116 -2 -109 5 3 11 29 13 58 3 29 9 61 13
71 4 10 3 17 -3 17 -6 0 -16 -17 -21 -37z"/>
<path d="M2641 2418 c-18 -49 -27 -168 -12 -168 6 0 11 15 11 33 0 17 7 59 15
92 15 65 5 97 -14 43z"/>
<path d="M2759 2413 c-17 -41 -25 -178 -10 -169 6 4 11 24 11 44 0 20 7 61 14
89 15 57 4 84 -15 36z"/>
<path d="M1605 2343 c4 -10 9 -55 12 -101 4 -54 10 -81 17 -79 12 4 13 53 2
140 -5 41 -12 57 -23 57 -10 0 -13 -5 -8 -17z"/>
<path d="M1724 2298 c12 -109 17 -138 28 -138 7 0 9 26 5 78 -8 89 -15 122
-29 122 -6 0 -8 -24 -4 -62z"/>
<path d="M744 2238 c3 -13 9 -51 13 -85 3 -35 10 -60 15 -57 5 4 7 29 3 58
-10 82 -16 106 -27 106 -6 0 -8 -10 -4 -22z"/>
<path d="M845 2243 c3 -10 9 -48 12 -85 6 -70 23 -95 23 -33 0 50 -20 135 -32
135 -6 0 -7 -8 -3 -17z"/>
<path d="M3646 2219 c-19 -48 -30 -129 -17 -129 6 0 11 8 11 18 0 10 7 44 15
76 17 66 12 86 -9 35z"/>
<path d="M3750 2220 c-7 -13 -14 -50 -16 -84 -3 -58 -3 -59 7 -21 5 22 14 57
20 78 12 45 6 59 -11 27z"/>
<path d="M1976 2101 c-4 -5 -9 -30 -12 -55 -7 -50 -4 -53 81 -58 35 -3 41 -6
46 -33 l7 -30 1 29 c1 23 4 27 19 21 39 -18 78 -17 101 3 25 20 21 48 -6 38
-8 -3 -12 -2 -9 3 3 5 -1 12 -10 15 -24 9 -62 7 -69 -4 -11 -18 -34 -11 -37
12 -5 39 -96 86 -112 59z m102 -56 c-3 -3 -9 2 -12 12 -6 14 -5 15 5 6 7 -7
10 -15 7 -18z"/>
<path d="M2082 1860 c0 -14 2 -19 5 -12 2 6 2 18 0 25 -3 6 -5 1 -5 -13z"/>
<path d="M1425 1435 c-74 -154 -84 -185 -62 -185 8 0 27 29 45 69 28 62 69
111 94 111 6 0 7 -8 3 -17 -4 -10 -10 -41 -12 -68 -9 -96 46 -121 120 -56 32
29 31 56 -1 33 -9 -6 -29 -19 -44 -27 -25 -14 -28 -14 -39 6 -8 16 -8 37 2 86
15 72 6 89 -38 72 l-23 -9 16 38 c23 52 28 82 15 82 -6 0 -40 -61 -76 -135z"/>
<path d="M1005 1507 c-16 -56 -29 -67 -81 -67 -27 0 -51 -26 -32 -33 7 -2 28
-2 46 1 38 5 38 3 15 -78 -12 -43 -13 -64 -6 -71 14 -14 25 6 48 93 l18 66 56
14 c65 15 66 34 2 30 -43 -3 -43 -3 -36 25 12 43 11 66 -2 70 -7 3 -18 -17
-28 -50z"/>
<path d="M2374 1498 c-18 -50 -21 -53 -63 -60 -25 -4 -49 -12 -54 -17 -14 -14
16 -24 53 -19 35 5 35 1 15 -66 -35 -115 -2 -116 36 -1 l25 79 49 11 c67 14
75 40 11 33 -53 -6 -50 -13 -30 67 5 18 2 25 -9 25 -8 0 -22 -21 -33 -52z"/>
<path d="M1960 1525 c0 -13 -3 -13 -20 -3 -27 17 -35 4 -15 -26 16 -25 45 -36
45 -17 0 4 12 6 26 3 29 -5 28 4 -4 41 -19 21 -32 22 -32 2z"/>
<path d="M3149 1500 c-7 -22 -18 -40 -25 -40 -20 0 -27 -19 -14 -35 9 -11 8
-28 -8 -75 -19 -56 -16 -80 8 -65 5 3 19 37 31 76 l21 69 39 0 c39 0 39 0 41
-42 2 -54 -1 -109 -8 -127 -3 -11 -8 -10 -24 4 -27 24 -38 10 -19 -23 10 -18
23 -27 39 -27 36 0 53 58 47 155 -6 84 -18 100 -75 100 -32 0 -33 1 -27 29 10
45 -13 47 -26 1z"/>
<path d="M3630 1527 c0 -18 28 -42 37 -33 9 8 -9 38 -25 44 -7 2 -12 -3 -12
-11z"/>
<path d="M3443 1510 c-29 -12 -30 -30 -2 -30 18 0 19 -3 9 -15 -18 -22 -6 -45
21 -38 l23 6 -22 -28 c-41 -52 -15 -155 39 -155 25 0 24 8 -6 36 -34 31 -33
76 1 103 15 12 37 21 50 21 52 0 34 32 -25 45 l-35 7 28 15 c15 8 25 20 23 26
-5 15 -74 19 -104 7z"/>
<path d="M3594 1505 c3 -9 6 -19 6 -21 0 -2 7 -4 16 -4 22 0 13 34 -10 38 -14
3 -17 0 -12 -13z"/>
<path d="M3740 1482 c-14 -20 -43 -56 -65 -80 -39 -43 -39 -44 -19 -60 11 -10
42 -43 69 -75 32 -38 51 -55 58 -48 7 7 -5 29 -34 66 -68 87 -66 81 -37 112
31 33 78 102 78 114 0 21 -27 6 -50 -29z"/>
<path d="M1342 1490 c13 -20 38 -28 38 -12 0 12 -23 32 -37 32 -11 0 -11 -4
-1 -20z"/>
<path d="M1734 1500 c-56 -8 -74 -16 -74 -30 0 -6 41 -7 98 -4 l97 6 -30 -25
c-21 -18 -27 -29 -19 -36 7 -8 22 -2 52 20 86 63 35 92 -124 69z"/>
<path d="M2706 1501 c-3 -4 3 -16 13 -25 22 -20 40 -4 21 19 -14 17 -26 19
-34 6z"/>
<path d="M1300 1488 c0 -18 20 -38 38 -38 19 0 10 20 -16 38 -19 12 -22 12
-22 0z"/>
<path d="M3295 1488 c-7 -19 23 -71 36 -62 14 9 10 30 -10 55 -17 21 -20 22
-26 7z"/>
<path d="M2670 1477 c0 -17 20 -37 37 -37 18 0 16 15 -3 34 -19 19 -34 21 -34
3z"/>
<path d="M2970 1479 c0 -7 9 -27 21 -46 14 -22 20 -44 17 -64 -3 -16 -1 -32 3
-35 15 -9 31 39 25 74 -7 47 -66 109 -66 71z"/>
<path d="M2805 1436 c-19 -46 -28 -137 -16 -156 9 -13 14 -12 37 6 37 27 44
49 14 41 -22 -6 -22 -4 -16 41 3 26 9 59 12 75 9 39 -14 35 -31 -7z"/>
<path d="M1151 1444 c-19 -8 -31 -18 -27 -21 8 -8 148 -4 156 4 3 2 -4 11 -14
19 -25 18 -72 17 -115 -2z"/>
<path d="M2509 1431 l-24 -20 80 4 c56 3 80 8 80 17 0 9 -19 14 -56 16 -44 2
-61 -1 -80 -17z"/>
<path d="M1110 1327 c0 -43 87 -69 138 -43 47 24 39 35 -23 29 -41 -4 -61 -2
-79 11 -31 19 -36 20 -36 3z"/>
<path d="M2480 1316 c0 -45 121 -64 156 -25 l19 21 -53 -7 c-40 -5 -58 -3 -77
9 -30 20 -45 20 -45 2z"/>
<path d="M1835 1298 c-16 -4 -54 -7 -84 -6 -35 2 -55 -1 -58 -9 -9 -26 154
-30 180 -4 18 18 -4 29 -38 19z"/>
</g>
</svg>
